<svg xmlns="http://www.w3.org/2000/svg" xmlns:xlink="http://www.w3.org/1999/xlink" width="2000" zoomAndPan="magnify" viewBox="0 0 1500 899.99999" height="1200" preserveAspectRatio="xMidYMid meet" version="1.0"><defs><g/><clipPath id="25df093bc1"><path d="M 270.785156 428.820312 L 300.550781 428.820312 L 300.550781 458.585938 L 270.785156 458.585938 Z M 270.785156 428.820312 " clip-rule="nonzero"/></clipPath><clipPath id="0127416899"><path d="M 285.667969 428.820312 C 277.449219 428.820312 270.785156 435.484375 270.785156 443.703125 C 270.785156 451.921875 277.449219 458.585938 285.667969 458.585938 C 293.886719 458.585938 300.550781 451.921875 300.550781 443.703125 C 300.550781 435.484375 293.886719 428.820312 285.667969 428.820312 Z M 285.667969 428.820312 " clip-rule="nonzero"/></clipPath></defs><path stroke-linecap="butt" transform="matrix(0, -0.75, 0.75, 0, 413.654458, 619.207308)" fill="none" stroke-linejoin="miter" d="M 0.00036846 6.002389 L 443.864975 6.002389 " stroke="#0f81c7" stroke-width="12" stroke-opacity="1" stroke-miterlimit="4"/><path stroke-linecap="round" transform="matrix(0.75, 0.000000000000000395, -0.000000000000000395, 0.75, 120.039794, 341.356497)" fill="none" stroke-linejoin="miter" d="M 7.999025 7.998629 L 99.972989 7.998629 " stroke="#0f81c7" stroke-width="16" stroke-opacity="1" stroke-miterlimit="4"/><path stroke-linecap="round" transform="matrix(0.75, 0, 0, 0.75, 120.039794, 545.444703)" fill="none" stroke-linejoin="miter" d="M 7.999025 8.000812 L 103.051114 8.000812 " stroke="#0f81c7" stroke-width="16" stroke-opacity="1" stroke-miterlimit="4"/><path stroke-linecap="butt" transform="matrix(0.75, 0, 0, 0.75, 120.039794, 507.940961)" fill="none" stroke-linejoin="miter" d="M -0.000974957 8.000594 L 107.972989 8.000594 " stroke="#0f81c7" stroke-width="16" stroke-opacity="1" stroke-miterlimit="4"/><path stroke-linecap="butt" transform="matrix(0.75, 0, 0, 0.75, 120.039794, 372.989796)" fill="none" stroke-linejoin="miter" d="M -0.000974957 7.99798 L 107.972989 7.99798 " stroke="#0f81c7" stroke-width="16" stroke-opacity="1" stroke-miterlimit="4"/><path stroke-linecap="butt" transform="matrix(0.75, 0, 0, 0.75, 120.039794, 397.278719)" fill="none" stroke-linejoin="miter" d="M -0.000974957 7.998166 L 107.972989 7.998166 " stroke="#0f81c7" stroke-width="16" stroke-opacity="1" stroke-miterlimit="4"/><path stroke-linecap="round" transform="matrix(0, -0.75, 0.75, 0, 119.467166, 557.216991)" fill="none" stroke-linejoin="miter" d="M 9.997655 10.002113 L 277.617461 10.002113 " stroke="#0f81c7" stroke-width="20" stroke-opacity="1" stroke-miterlimit="4"/><path stroke-linecap="round" transform="matrix(0, -0.75, 0.75, 0, 188.895349, 557.216991)" fill="none" stroke-linejoin="miter" d="M 9.997655 9.998911 L 277.617461 9.998911 " stroke="#0f81c7" stroke-width="20" stroke-opacity="1" stroke-miterlimit="4"/><path stroke-linecap="round" transform="matrix(0, -0.75, 0.75, 0, 237.524453, 557.689743)" fill="none" stroke-linejoin="miter" d="M 7.997783 7.998646 L 271.820713 7.998646 " stroke="#0f81c7" stroke-width="16" stroke-opacity="1" stroke-miterlimit="4"/><path stroke-linecap="round" transform="matrix(0, -0.75, 0.75, 0, 211.996754, 557.218047)" fill="none" stroke-linejoin="miter" d="M 7.999063 7.99912 L 271.816785 7.99912 " stroke="#0f81c7" stroke-width="16" stroke-opacity="1" stroke-miterlimit="4"/><path stroke-linecap="round" transform="matrix(0.75, 0.000000000000000944, -0.000000000000000944, 0.75, 213.378542, 347.131994)" fill="none" stroke-linejoin="miter" d="M 8.000487 8.001092 L 37.141113 8.001092 " stroke="#0f81c7" stroke-width="16" stroke-opacity="1" stroke-miterlimit="4"/><path stroke-linecap="round" transform="matrix(0.75, 0, 0, 0.75, 213.378542, 545.916447)" fill="none" stroke-linejoin="miter" d="M 8.000487 8.002029 L 37.141113 8.002029 " stroke="#0f81c7" stroke-width="16" stroke-opacity="1" stroke-miterlimit="4"/><path stroke-linecap="round" transform="matrix(0.75, 0, 0, 0.75, 213.378542, 511.406297)" fill="none" stroke-linejoin="miter" d="M 8.000487 7.999937 L 37.141113 7.999937 " stroke="#0f81c7" stroke-width="16" stroke-opacity="1" stroke-miterlimit="4"/><path stroke-linecap="round" transform="matrix(-0.51831, -0.542083, 0.542083, -0.51831, 385.748748, 528.567832)" fill="none" stroke-linejoin="miter" d="M 8.00011 7.997466 L 274.779026 7.999023 " stroke="#0f81c7" stroke-width="16" stroke-opacity="1" stroke-miterlimit="4"/><path stroke-linecap="round" transform="matrix(-0.516659, -0.543657, 0.543657, -0.516659, 357.226835, 555.576663)" fill="none" stroke-linejoin="miter" d="M 8.001668 7.998983 L 228.288987 8.00071 " stroke="#0f81c7" stroke-width="16" stroke-opacity="1" stroke-miterlimit="4"/><path stroke-linecap="round" transform="matrix(0.519661, -0.540788, 0.540788, 0.519661, 350.708222, 547.286895)" fill="none" stroke-linejoin="miter" d="M 8.000284 7.998964 L 53.628792 7.998159 " stroke="#0f81c7" stroke-width="16" stroke-opacity="1" stroke-miterlimit="4"/><g clip-path="url(#25df093bc1)"><g clip-path="url(#0127416899)"><path fill="#0f81c7" d="M 270.785156 428.820312 L 300.550781 428.820312 L 300.550781 458.585938 L 270.785156 458.585938 Z M 270.785156 428.820312 " fill-opacity="1" fill-rule="nonzero"/></g></g><g fill="#0f81c7" fill-opacity="1"><g transform="translate(442.045521, 536.236882)"><g><path d="M 71.421875 -175.765625 C 92.234375 -175.765625 108.210938 -169.066406 119.359375 -155.671875 L 102.640625 -141.140625 C 96.191406 -151.304688 85.785156 -156.550781 71.421875 -156.875 C 60.609375 -156.875 51.8125 -154.289062 45.03125 -149.125 C 38.25 -143.957031 34.859375 -136.9375 34.859375 -128.0625 C 34.859375 -120.320312 37.441406 -114.191406 42.609375 -109.671875 C 47.773438 -105.148438 57.457031 -100.710938 71.65625 -96.359375 C 90.0625 -91.023438 103.09375 -84.523438 110.75 -76.859375 C 118.414062 -69.191406 122.25 -58.820312 122.25 -45.75 C 122.25 -30.582031 116.597656 -18.476562 105.296875 -9.4375 C 94.003906 -0.40625 79.5625 4.191406 61.96875 4.359375 C 50.1875 4.359375 39.695312 2.257812 30.5 -1.9375 C 21.300781 -6.132812 14.203125 -11.945312 9.203125 -19.375 L 26.625 -33.65625 C 30.34375 -27.519531 35.507812 -22.796875 42.125 -19.484375 C 48.738281 -16.179688 55.757812 -14.53125 63.1875 -14.53125 C 73.351562 -14.53125 82.109375 -17.394531 89.453125 -23.125 C 96.796875 -28.851562 100.46875 -35.910156 100.46875 -44.296875 C 100.46875 -51.890625 98.328125 -57.863281 94.046875 -62.21875 C 89.773438 -66.570312 82.71875 -70.285156 72.875 -73.359375 L 53.265625 -79.890625 C 38.578125 -84.890625 28.207031 -91.140625 22.15625 -98.640625 C 16.101562 -106.148438 13.078125 -115.394531 13.078125 -126.375 C 13.078125 -140.894531 18.484375 -152.710938 29.296875 -161.828125 C 40.109375 -170.953125 54.148438 -175.597656 71.421875 -175.765625 Z M 71.421875 -175.765625 "/></g></g></g><g fill="#0f81c7" fill-opacity="1"><g transform="translate(576.629057, 536.236882)"><g><path d="M 70.203125 -116.203125 C 88.117188 -116.203125 102.566406 -110.234375 113.546875 -98.296875 L 98.53125 -84.96875 C 90.945312 -94.175781 81.425781 -98.78125 69.96875 -98.78125 C 58.1875 -98.78125 48.863281 -94.945312 42 -87.28125 C 35.144531 -79.613281 31.71875 -69.40625 31.71875 -56.65625 C 31.71875 -44.550781 35.390625 -34.539062 42.734375 -26.625 C 50.078125 -18.71875 59.15625 -14.6875 69.96875 -14.53125 C 82.394531 -14.53125 92 -19.207031 98.78125 -28.5625 L 112.8125 -15.25 C 102.320312 -3.3125 88.039062 2.738281 69.96875 2.90625 C 52.695312 2.738281 38.691406 -2.75 27.953125 -13.5625 C 17.222656 -24.375 11.695312 -38.738281 11.375 -56.65625 C 11.539062 -74.726562 17.191406 -89.171875 28.328125 -99.984375 C 39.460938 -110.796875 53.421875 -116.203125 70.203125 -116.203125 Z M 70.203125 -116.203125 "/></g></g></g><g fill="#0f81c7" fill-opacity="1"><g transform="translate(693.300378, 536.236882)"><g><path d="M 71.90625 -116.203125 C 89.5 -116.203125 103.863281 -110.753906 115 -99.859375 C 126.132812 -88.960938 131.941406 -74.5625 132.421875 -56.65625 C 132.421875 -39.382812 126.769531 -25.21875 115.46875 -14.15625 C 104.175781 -3.101562 89.65625 2.582031 71.90625 2.90625 C 54.144531 2.90625 39.695312 -2.703125 28.5625 -13.921875 C 17.425781 -25.140625 11.695312 -39.382812 11.375 -56.65625 C 11.375 -74.082031 17.019531 -88.320312 28.3125 -99.375 C 39.613281 -110.4375 54.144531 -116.046875 71.90625 -116.203125 Z M 31.71875 -56.65625 C 31.71875 -44.226562 35.46875 -34.179688 42.96875 -26.515625 C 50.476562 -18.847656 60.125 -14.851562 71.90625 -14.53125 C 83.6875 -14.53125 93.285156 -18.441406 100.703125 -26.265625 C 108.128906 -34.097656 111.925781 -44.226562 112.09375 -56.65625 C 112.09375 -68.914062 108.335938 -79 100.828125 -86.90625 C 93.328125 -94.820312 83.601562 -98.78125 71.65625 -98.78125 C 60.039062 -98.78125 50.519531 -94.863281 43.09375 -87.03125 C 35.664062 -79.207031 31.875 -69.082031 31.71875 -56.65625 Z M 31.71875 -56.65625 "/></g></g></g><g fill="#0f81c7" fill-opacity="1"><g transform="translate(837.082047, 536.236882)"><g><path d="M 38.5 -183.015625 L 38.5 0 L 19.609375 0 L 19.609375 -183.015625 Z M 38.5 -183.015625 "/></g></g></g><g fill="#0f81c7" fill-opacity="1"><g transform="translate(895.175654, 536.236882)"><g><path d="M 61.484375 -116.203125 C 77.953125 -116.203125 89.9375 -112.328125 97.4375 -104.578125 C 104.945312 -96.835938 108.78125 -85.140625 108.9375 -69.484375 L 108.9375 -18.640625 C 108.9375 -13.796875 109.503906 -7.582031 110.640625 0 L 92.484375 0 C 91.671875 -1.445312 91.265625 -7.097656 91.265625 -16.953125 L 90.78125 -16.953125 C 82.226562 -4.035156 69.800781 2.582031 53.5 2.90625 C 41.070312 2.90625 30.941406 -0.195312 23.109375 -6.40625 C 15.285156 -12.625 11.375 -20.738281 11.375 -30.75 C 11.375 -44.46875 17.019531 -54.515625 28.3125 -60.890625 C 39.613281 -67.265625 57.289062 -70.453125 81.34375 -70.453125 L 90.0625 -70.453125 L 90.0625 -73.59375 C 90.0625 -90.0625 80.695312 -98.457031 61.96875 -98.78125 C 48.414062 -98.78125 37.203125 -94.660156 28.328125 -86.421875 L 16.46875 -98.78125 C 28.082031 -110.070312 43.085938 -115.878906 61.484375 -116.203125 Z M 31.71875 -32.6875 C 31.71875 -19.9375 40.03125 -13.398438 56.65625 -13.078125 C 66.5 -13.078125 74.523438 -16.222656 80.734375 -22.515625 C 86.953125 -28.804688 90.0625 -38.003906 90.0625 -50.109375 L 90.0625 -54.46875 L 69.234375 -54.46875 C 58.097656 -54.46875 49.097656 -52.691406 42.234375 -49.140625 C 35.378906 -45.585938 31.875 -40.101562 31.71875 -32.6875 Z M 31.71875 -32.6875 "/></g></g></g><g fill="#0f81c7" fill-opacity="1"><g transform="translate(1020.803054, 536.236882)"><g><path d="M 73.59375 -116.203125 C 76.5 -116.203125 79.082031 -115.800781 81.34375 -115 L 80.140625 -95.875 C 76.585938 -96.84375 73.195312 -97.328125 69.96875 -97.328125 C 58.988281 -97.328125 50.710938 -93.734375 45.140625 -86.546875 C 39.578125 -79.367188 36.796875 -69.242188 36.796875 -56.171875 L 36.796875 0 L 17.921875 0 L 17.921875 -88.125 C 17.921875 -90.382812 17.597656 -98.773438 16.953125 -113.296875 L 34.859375 -113.296875 C 35.179688 -102.003906 35.34375 -95.789062 35.34375 -94.65625 L 35.828125 -94.65625 C 38.890625 -101.113281 43.847656 -106.316406 50.703125 -110.265625 C 57.566406 -114.222656 65.195312 -116.203125 73.59375 -116.203125 Z M 73.59375 -116.203125 "/></g></g></g><g fill="#0f81c7" fill-opacity="1"><g transform="translate(1106.007011, 536.236882)"><g><path d="M 29.046875 -171.40625 C 32.765625 -171.40625 35.992188 -170.070312 38.734375 -167.40625 C 41.472656 -164.738281 42.84375 -161.472656 42.84375 -157.609375 C 42.84375 -153.566406 41.550781 -150.253906 38.96875 -147.671875 C 36.394531 -145.085938 33.085938 -143.796875 29.046875 -143.796875 C 25.015625 -143.796875 21.707031 -145.085938 19.125 -147.671875 C 16.539062 -150.253906 15.25 -153.566406 15.25 -157.609375 C 15.25 -161.472656 16.617188 -164.738281 19.359375 -167.40625 C 22.109375 -170.070312 25.335938 -171.40625 29.046875 -171.40625 Z M 38.5 -113.296875 L 38.5 0 L 19.609375 0 L 19.609375 -113.296875 Z M 38.5 -113.296875 "/></g></g></g><g fill="#0f81c7" fill-opacity="1"><g transform="translate(1164.100618, 536.236882)"><g><path d="M 52.53125 -116.203125 C 70.613281 -116.046875 83.445312 -109.1875 91.03125 -95.625 L 75.296875 -85.21875 C 69.804688 -94.257812 61.816406 -98.78125 51.328125 -98.78125 C 45.023438 -98.78125 39.734375 -97.328125 35.453125 -94.421875 C 31.179688 -91.515625 29.046875 -87.71875 29.046875 -83.03125 C 29.046875 -75.445312 38.488281 -69.960938 57.375 -66.578125 C 70.9375 -64.148438 80.539062 -60.191406 86.1875 -54.703125 C 91.832031 -49.222656 94.65625 -41.882812 94.65625 -32.6875 C 94.65625 -21.550781 90.539062 -12.832031 82.3125 -6.53125 C 74.082031 -0.238281 63.109375 2.90625 49.390625 2.90625 C 38.734375 2.90625 29.972656 1.210938 23.109375 -2.171875 C 16.253906 -5.566406 10.328125 -10.894531 5.328125 -18.15625 L 20.328125 -29.78125 C 25.015625 -24.125 29.613281 -20.164062 34.125 -17.90625 C 38.644531 -15.65625 43.734375 -14.53125 49.390625 -14.53125 C 56.648438 -14.53125 62.617188 -16.101562 67.296875 -19.25 C 71.984375 -22.394531 74.328125 -26.628906 74.328125 -31.953125 C 74.328125 -37.441406 71.863281 -41.554688 66.9375 -44.296875 C 62.019531 -47.046875 53.828125 -49.550781 42.359375 -51.8125 C 31.066406 -54.226562 22.878906 -57.859375 17.796875 -62.703125 C 12.710938 -67.546875 10.171875 -74.242188 10.171875 -82.796875 C 10.171875 -92.316406 14.082031 -100.222656 21.90625 -106.515625 C 29.738281 -112.816406 39.945312 -116.046875 52.53125 -116.203125 Z M 52.53125 -116.203125 "/></g></g></g><g fill="#0f81c7" fill-opacity="1"><g transform="translate(1279.978309, 522.925086)"><g><path d="M 96.21875 -23.578125 L 95.03125 -20.953125 C 94.550781 -19.847656 93.910156 -18.738281 93.109375 -17.625 C 92.316406 -16.507812 91.523438 -15.476562 90.734375 -14.53125 C 89.304688 -12.9375 87.398438 -11.226562 85.015625 -9.40625 C 82.640625 -7.582031 80.972656 -5.71875 80.015625 -3.8125 C 79.546875 -2.539062 79.90625 -1.070312 81.09375 0.59375 C 82.28125 2.257812 83.707031 3.847656 85.375 5.359375 C 87.039062 6.867188 88.273438 8.019531 89.078125 8.8125 C 91.296875 11.351562 93.359375 13.929688 95.265625 16.546875 C 97.171875 19.171875 99.15625 21.832031 101.21875 24.53125 C 101.851562 25.320312 103.039062 26.507812 104.78125 28.09375 C 106.53125 29.6875 106.847656 30.957031 105.734375 31.90625 C 104.785156 32.863281 103.597656 32.984375 102.171875 32.265625 C 100.742188 31.554688 99.429688 30.566406 98.234375 29.296875 C 97.046875 28.023438 96.132812 27.148438 95.5 26.671875 C 93.113281 25.085938 90.769531 23.617188 88.46875 22.265625 C 86.164062 20.921875 83.90625 19.210938 81.6875 17.140625 C 79.78125 15.398438 77.476562 13.734375 74.78125 12.140625 C 72.082031 10.554688 70.097656 8.65625 68.828125 6.4375 C 65.015625 9.445312 60.726562 12.578125 55.96875 15.828125 C 51.207031 19.085938 46.242188 21.429688 41.078125 22.859375 C 35.921875 24.285156 30.800781 23.734375 25.71875 21.203125 C 22.070312 19.296875 18.816406 16.710938 15.953125 13.453125 C 13.097656 10.203125 10.71875 6.828125 8.8125 3.328125 C 8.65625 2.859375 8.097656 1.867188 7.140625 0.359375 C 6.191406 -1.148438 5.359375 -2.660156 4.640625 -4.171875 C 3.929688 -5.679688 3.8125 -6.59375 4.28125 -6.90625 C 4.28125 -6.90625 4.640625 -6.269531 5.359375 -5 C 6.078125 -3.726562 6.515625 -3.09375 6.671875 -3.09375 C 4.441406 -6.75 2.691406 -10.878906 1.421875 -15.484375 L 1.421875 -15.234375 C 0.953125 -15.078125 0.597656 -16.46875 0.359375 -19.40625 C 0.117188 -22.34375 0 -25.796875 0 -29.765625 C 0 -33.734375 0.0351562 -37.425781 0.109375 -40.84375 C 0.191406 -44.257812 0.3125 -46.363281 0.46875 -47.15625 C 2.21875 -58.269531 5.316406 -69.300781 9.765625 -80.25 C 14.210938 -91.207031 19.132812 -101.53125 24.53125 -111.21875 C 27.070312 -115.820312 29.8125 -120.347656 32.75 -124.796875 C 35.6875 -129.242188 38.976562 -133.289062 42.625 -136.9375 C 46.4375 -140.90625 49.890625 -145.3125 52.984375 -150.15625 C 56.085938 -155 59.539062 -159.40625 63.34375 -163.375 C 66.363281 -166.707031 69.9375 -170.195312 74.0625 -173.84375 C 78.195312 -177.5 82.722656 -179.40625 87.640625 -179.5625 C 90.023438 -179.726562 92.25 -179.253906 94.3125 -178.140625 C 96.375 -177.023438 98.195312 -175.675781 99.78125 -174.09375 C 100.101562 -173.769531 100.703125 -173.132812 101.578125 -172.1875 C 102.453125 -171.238281 103.203125 -170.328125 103.828125 -169.453125 C 104.460938 -168.578125 104.46875 -167.898438 103.84375 -167.421875 C 104.46875 -167.742188 104.625 -167.503906 104.3125 -166.703125 C 104 -165.910156 103.679688 -165.4375 103.359375 -165.28125 C 103.046875 -164.957031 102.648438 -164.796875 102.171875 -164.796875 C 101.691406 -164.796875 101.296875 -164.796875 100.984375 -164.796875 C 100.503906 -164.796875 100.101562 -164.71875 99.78125 -164.5625 C 100.738281 -164.71875 100.703125 -164.632812 99.671875 -164.3125 C 98.640625 -164 97.960938 -163.765625 97.640625 -163.609375 C 96.847656 -163.296875 96.054688 -162.78125 95.265625 -162.0625 C 94.472656 -161.351562 93.675781 -160.757812 92.875 -160.28125 L 83.109375 -152.421875 C 85.816406 -155.117188 88.476562 -157.617188 91.09375 -159.921875 C 93.71875 -162.222656 96.773438 -164.164062 100.265625 -165.75 C 97.566406 -164.800781 95.023438 -163.410156 92.640625 -161.578125 C 90.265625 -159.753906 87.960938 -157.972656 85.734375 -156.234375 L 88.59375 -158.84375 C 75.414062 -147.894531 64.023438 -135.351562 54.421875 -121.21875 C 44.816406 -107.09375 36.675781 -92.171875 30 -76.453125 C 36.039062 -88.671875 42.832031 -100.535156 50.375 -112.046875 C 57.914062 -123.554688 66.128906 -134.394531 75.015625 -144.5625 C 66.285156 -133.445312 58.425781 -121.65625 51.4375 -109.1875 C 44.457031 -96.726562 38.1875 -83.988281 32.625 -70.96875 C 35.007812 -76.53125 37.628906 -82.046875 40.484375 -87.515625 C 43.335938 -92.992188 46.273438 -98.4375 49.296875 -103.84375 C 50.722656 -106.539062 52.226562 -109.238281 53.8125 -111.9375 C 55.40625 -114.632812 57 -117.253906 58.59375 -119.796875 C 59.539062 -121.535156 60.882812 -123.394531 62.625 -125.375 C 64.375 -127.363281 65.566406 -129.234375 66.203125 -130.984375 C 65.566406 -129.078125 64.613281 -127.328125 63.34375 -125.734375 C 62.070312 -124.148438 60.882812 -122.488281 59.78125 -120.75 C 58.507812 -118.84375 57.238281 -116.816406 55.96875 -114.671875 C 54.695312 -112.523438 53.425781 -110.421875 52.15625 -108.359375 C 47.707031 -100.265625 43.421875 -91.929688 39.296875 -83.359375 C 35.484375 -75.421875 31.988281 -67.320312 28.8125 -59.0625 C 25.632812 -50.800781 22.9375 -42.304688 20.71875 -33.578125 C 19.925781 -30.242188 19.09375 -26.507812 18.21875 -22.375 C 17.34375 -18.25 16.941406 -14.160156 17.015625 -10.109375 C 17.097656 -6.066406 18.09375 -2.378906 20 0.953125 C 22.0625 4.441406 24.601562 6.503906 27.625 7.140625 C 30.644531 7.773438 33.859375 7.5 37.265625 6.3125 C 40.679688 5.125 43.9375 3.578125 47.03125 1.671875 C 50.132812 -0.234375 52.71875 -2.0625 54.78125 -3.8125 C 53.1875 -5.394531 51.554688 -7.019531 49.890625 -8.6875 C 48.222656 -10.351562 46.992188 -12.222656 46.203125 -14.296875 C 45.242188 -16.359375 45.203125 -18.539062 46.078125 -20.84375 C 46.953125 -23.144531 48.660156 -24.453125 51.203125 -24.765625 C 53.421875 -25.085938 55.441406 -24.175781 57.265625 -22.03125 C 59.097656 -19.882812 60.804688 -18.175781 62.390625 -16.90625 C 64.140625 -15.320312 65.332031 -14.644531 65.96875 -14.875 C 66.601562 -15.113281 67.710938 -16.03125 69.296875 -17.625 C 73.898438 -22.226562 78.066406 -27.304688 81.796875 -32.859375 C 85.535156 -38.421875 89.148438 -43.898438 92.640625 -49.296875 C 95.335938 -53.742188 98.113281 -58.1875 100.96875 -62.625 C 103.832031 -67.070312 106.375 -71.597656 108.59375 -76.203125 C 108.125 -75.566406 107.367188 -74.613281 106.328125 -73.34375 C 105.296875 -72.082031 104.863281 -71.289062 105.03125 -70.96875 C 104.707031 -72.238281 105.0625 -73.90625 106.09375 -75.96875 C 107.125 -78.03125 108.273438 -80.132812 109.546875 -82.28125 C 110.816406 -84.425781 111.691406 -85.972656 112.171875 -86.921875 C 113.921875 -91.054688 115.628906 -95.222656 117.296875 -99.421875 C 118.960938 -103.628906 120.507812 -107.957031 121.9375 -112.40625 C 123.050781 -115.738281 124.125 -119.269531 125.15625 -123 C 126.1875 -126.738281 126.78125 -130.351562 126.9375 -133.84375 C 127.09375 -137.5 126.175781 -139.679688 124.1875 -140.390625 C 122.207031 -141.109375 119.628906 -140.910156 116.453125 -139.796875 C 110.265625 -137.578125 104.585938 -134.28125 99.421875 -129.90625 C 94.265625 -125.539062 89.625 -120.898438 85.5 -115.984375 C 84.382812 -114.554688 83.03125 -112.53125 81.4375 -109.90625 C 79.851562 -107.289062 78.191406 -105.742188 76.453125 -105.265625 C 73.910156 -104.628906 72.597656 -105.460938 72.515625 -107.765625 C 72.441406 -110.066406 72.484375 -112.007812 72.640625 -113.59375 C 73.910156 -119.945312 76.6875 -125.382812 80.96875 -129.90625 C 85.257812 -134.4375 89.628906 -138.765625 94.078125 -142.890625 C 96.773438 -145.273438 99.75 -147.816406 103 -150.515625 C 106.257812 -153.210938 109.710938 -155.273438 113.359375 -156.703125 C 117.015625 -158.128906 120.75 -158.207031 124.5625 -156.9375 C 129.632812 -155.195312 133.679688 -151.941406 136.703125 -147.171875 C 139.722656 -142.410156 141.863281 -137.648438 143.125 -132.890625 C 144.875 -126.535156 145.070312 -120.101562 143.71875 -113.59375 C 142.375 -107.09375 140.59375 -100.820312 138.375 -94.78125 C 135.832031 -87.800781 132.851562 -81.015625 129.4375 -74.421875 C 126.019531 -67.835938 122.25 -61.367188 118.125 -55.015625 C 115.90625 -51.523438 113.601562 -48.109375 111.21875 -44.765625 C 108.832031 -41.429688 106.375 -38.019531 103.84375 -34.53125 C 103.207031 -33.582031 102.171875 -31.796875 100.734375 -29.171875 C 99.304688 -26.554688 97.957031 -24.769531 96.6875 -23.8125 C 97.007812 -24.132812 97.328125 -24.648438 97.640625 -25.359375 C 97.960938 -26.078125 98.28125 -26.675781 98.59375 -27.15625 Z M 96.21875 -23.578125 "/></g></g></g></svg>